<svg width="48" height="48" viewBox="0 0 48 48" fill="none" xmlns="http://www.w3.org/2000/svg">
<path d="M39 47.4H8.5C3.8 47.4 0 43.6 0 39V8.5C0 3.8 3.8 0 8.5 0H39C43.7 0 47.5 3.8 47.5 8.5V39C47.4 43.6 43.6 47.4 39 47.4Z" fill="#3E5C9A"/>
<path d="M20.1 37.9999H25.9V23.5999H29.9L30.3 18.7999H25.8C25.8 18.7999 25.8 16.9999 25.8 15.9999C25.8 14.8999 26 14.3999 27.1 14.3999C28 14.3999 30.2 14.3999 30.2 14.3999V9.3999C30.2 9.3999 26.9 9.3999 26.2 9.3999C21.9 9.3999 20 11.2999 20 14.8999C20 18.0999 20 18.7999 20 18.7999H17V23.6999H20V37.9999H20.1Z" fill="white"/>
</svg>
