<svg width="48" height="48" viewBox="0 0 48 48" fill="none" xmlns="http://www.w3.org/2000/svg">
<g clip-path="url(#clip0_40_221)">
<path d="M39 47.4H8.5C3.8 47.4 0 43.6 0 39V8.5C0 3.8 3.8 0 8.5 0H39C43.7 0 47.5 3.8 47.5 8.5V39C47.4 43.6 43.6 47.4 39 47.4Z" fill="url(#paint0_radial_40_221)"/>
<path d="M23.7001 13.1002C27.2001 13.1002 27.6001 13.1002 29.0001 13.2002C30.3001 13.3002 31.0001 13.5002 31.4001 13.6002C32.0001 13.8002 32.4001 14.1002 32.9001 14.6002C33.4001 15.1002 33.6001 15.5002 33.9001 16.1002C34.1001 16.6002 34.3001 17.2002 34.3001 18.5002C34.4001 19.9002 34.4001 20.3002 34.4001 23.8002C34.4001 27.3002 34.4001 27.7002 34.3001 29.1002C34.2001 30.4002 34.0001 31.1002 33.9001 31.5002C33.7001 32.1002 33.4001 32.5002 32.9001 33.0002C32.4001 33.5002 32.0001 33.7002 31.4001 34.0002C30.9001 34.2002 30.3001 34.4002 29.0001 34.4002C27.6001 34.5002 27.2001 34.5002 23.7001 34.5002C20.2001 34.5002 19.8001 34.5002 18.4001 34.4002C17.1001 34.3002 16.4001 34.1002 16.0001 34.0002C15.4001 33.8002 15.0001 33.5002 14.5001 33.0002C14.0001 32.5002 13.8001 32.1002 13.5001 31.5002C13.3001 31.0002 13.1001 30.4002 13.1001 29.1002C13.0001 27.7002 13.0001 27.3002 13.0001 23.8002C13.0001 20.3002 13.0001 19.9002 13.1001 18.5002C13.2001 17.2002 13.4001 16.5002 13.5001 16.1002C13.7001 15.5002 14.0001 15.1002 14.5001 14.6002C15.0001 14.1002 15.4001 13.9002 16.0001 13.6002C16.5001 13.4002 17.1001 13.2002 18.4001 13.2002C19.8001 13.1002 20.2001 13.1002 23.7001 13.1002ZM23.7001 10.7002C20.2001 10.7002 19.7001 10.7002 18.3001 10.8002C16.9001 10.9002 16.0001 11.1002 15.1001 11.4002C14.2001 11.7002 13.5001 12.2002 12.8001 12.9002C12.1001 13.6002 11.6001 14.3002 11.3001 15.2002C11.0001 16.0002 10.8001 17.0002 10.7001 18.4002C10.6001 19.8002 10.6001 20.2002 10.6001 23.8002C10.6001 27.3002 10.6001 27.8002 10.7001 29.2002C10.8001 30.6002 11.0001 31.5002 11.3001 32.4002C11.6001 33.3002 12.1001 34.0002 12.8001 34.7002C13.5001 35.4002 14.2001 35.9002 15.1001 36.2002C15.9001 36.5002 16.9001 36.7002 18.3001 36.8002C19.7001 36.9002 20.1001 36.9002 23.7001 36.9002C27.3001 36.9002 27.7001 36.9002 29.1001 36.8002C30.5001 36.7002 31.4001 36.5002 32.3001 36.2002C33.2001 35.9002 33.9001 35.4002 34.6001 34.7002C35.3001 34.0002 35.8001 33.3002 36.1001 32.4002C36.4001 31.6002 36.6001 30.6002 36.7001 29.2002C36.8001 27.8002 36.8001 27.4002 36.8001 23.8002C36.8001 20.3002 36.8001 19.8002 36.7001 18.4002C36.6001 17.0002 36.4001 16.0002 36.0001 15.2002C35.7001 14.3002 35.2001 13.6002 34.5001 12.9002C33.8001 12.2002 33.1001 11.7002 32.2001 11.4002C31.4001 11.1002 30.4001 10.9002 29.0001 10.8002C27.7001 10.7002 27.2001 10.7002 23.7001 10.7002Z" fill="white"/>
<path d="M23.7 17C20 17 17 20 17 23.7C17 27.4 20 30.4 23.7 30.4C27.4 30.4 30.4 27.4 30.4 23.7C30.4 20 27.4 17 23.7 17ZM23.7 28C21.3 28 19.4 26.1 19.4 23.7C19.4 21.3 21.3 19.4 23.7 19.4C26.1 19.4 28 21.3 28 23.7C28 26.1 26.1 28 23.7 28Z" fill="white"/>
<path d="M32.2 16.8002C32.2 17.7002 31.5 18.4002 30.6 18.4002C29.7 18.4002 29 17.7002 29 16.8002C29 15.9002 29.7 15.2002 30.6 15.2002C31.5 15.2002 32.2 15.9002 32.2 16.8002Z" fill="white"/>
</g>
<defs>
<radialGradient id="paint0_radial_40_221" cx="0" cy="0" r="1" gradientUnits="userSpaceOnUse" gradientTransform="translate(-1.1867 47.5844) scale(87.6878 87.6878)">
<stop stop-color="#F5EC53"/>
<stop offset="0.2412" stop-color="#E48244"/>
<stop offset="0.3974" stop-color="#D15767"/>
<stop offset="0.4888" stop-color="#C84278"/>
<stop offset="1" stop-color="#192CFA"/>
</radialGradient>
<clipPath id="clip0_40_221">
<rect width="47.4" height="47.4" fill="white"/>
</clipPath>
</defs>
</svg>
