<svg width="133" height="74" viewBox="0 0 133 74" fill="none" xmlns="http://www.w3.org/2000/svg">
<path d="M0.380913 25.7791C-1.3819 18.4365 3.14144 11.0551 10.4841 9.29226L47.6025 0.380913C54.9451 -1.3819 62.3265 3.14144 64.0893 10.4841L73.0007 47.6025C74.7635 54.9451 70.2402 62.3265 62.8975 64.0893L25.7791 73.0007C18.4365 74.7635 11.0551 70.2402 9.29226 62.8975L0.380913 25.7791Z" fill="#153F93"/>
<path d="M0.381402 25.7791C-1.38141 18.4365 3.14193 11.0551 10.4846 9.29226L47.603 0.380913C54.9456 -1.3819 62.327 3.14144 64.0898 10.4841L73.0012 47.6025C74.764 54.9451 70.2407 62.3265 62.898 64.0894L25.7796 73.0007C18.437 74.7635 11.0556 70.2402 9.29275 62.8975L0.381402 25.7791Z" fill="#153F93"/>
<path d="M14.5407 31.0462L10.3122 31.1469C9.67454 31.1469 9.74199 30.7781 9.67454 30.0062C9.34121 26.1916 9.4195 26.4086 9.33896 20.2067C9.25841 14.0049 13.7577 12.3873 16.0174 12.3537C19.5412 12.3537 20.5144 13.5619 21.1185 13.5619C21.6219 13.5619 22.7965 12.3537 26.0182 12.3537C32.4886 12.3806 32.7302 17.6558 32.7302 20.2067C32.775 30.0622 32.8712 50.1287 32.898 51.5517C32.9316 53.3303 34.0726 54.2029 35.6499 54.3036C36.9118 54.3841 37.1825 53.5317 37.1601 53.0954L37.093 41.7186C37.1198 41.3159 37.3615 41.3159 37.5293 41.3159L41.4558 41.2823C42.5029 41.2823 42.3593 41.6179 42.3619 42.0207C42.3955 47.133 42.476 57.8207 42.5297 59.6732C42.5968 61.9888 41.0195 65.5126 36.6567 65.7139C32.2939 65.9153 30.1125 65.1099 29.4413 64.8414C28.9044 64.6266 28.8373 64.2373 28.8708 64.0695C28.8261 63.3759 28.7366 61.8948 28.7366 61.519C28.7366 61.0491 28.7701 60.68 29.4413 60.8142C33.0927 61.378 35.4821 61.1386 36.2204 60.9484C37.2944 60.7337 37.1266 59.8745 37.0259 58.7335C29.5085 59.8074 27.3606 55.7467 27.3606 49.4374L27.2264 20.2067C27.1995 17.0924 26.2531 17.249 25.6155 17.2195C23.8704 17.139 23.9711 19.4013 23.9711 19.9714V30.0058C23.9711 31.214 23.4341 31.1133 22.83 31.1133L19.1049 31.0798C18.4874 31.0529 18.4027 30.7442 18.4001 30.375C18.3778 27.0973 18.3701 20.313 18.333 19.4009C18.2662 17.7568 18.132 17.3202 16.7557 17.3202C15.3794 17.3202 15.2579 17.9246 15.2455 19.8372C15.2231 23.2827 15.1784 30.2542 15.1784 30.5764C15.1784 30.8985 14.7533 31.0238 14.5407 31.0462Z" fill="#00963F"/>
<path d="M50.1819 59.4386L45.9533 59.5393C45.3157 59.5393 45.3831 59.1705 45.3157 58.3986C44.9823 54.584 45.0606 54.801 44.9801 48.5992C44.8995 42.3973 49.3988 40.7797 51.6585 40.7461C55.1823 40.7461 56.1555 41.9543 56.7596 41.9543C57.263 41.9543 58.4376 40.7461 61.6593 40.7461C68.1297 40.773 68.3713 46.0482 68.3713 48.5992C68.3836 51.2975 68.3997 54.7613 68.4172 58.3983C68.4217 59.3383 68.4172 59.6404 67.5313 59.6404H63.8397C62.7993 59.6404 62.9125 59.2376 62.9125 58.3983C62.9125 54.5714 62.8675 48.5992 62.8675 48.5992C62.8407 45.4848 61.8943 45.6414 61.2566 45.6119C59.5115 45.5314 59.6122 47.7937 59.6122 48.3639V58.3983C59.6122 59.6064 59.0752 59.5057 58.4712 59.5057L54.746 59.4722C54.1285 59.4453 54.0438 59.1366 54.0412 58.7674C54.0189 55.4897 54.0112 48.7054 53.9741 47.7933C53.9073 46.1493 53.7731 45.7126 52.3968 45.7126C51.0206 45.7126 50.899 46.3171 50.8866 48.2296C50.8642 51.6751 50.8195 58.6466 50.8195 58.9688C50.8195 59.291 50.3944 59.4163 50.1819 59.4386Z" fill="#E30713"/>
<path d="M44.6789 29.8049C37.1615 30.8788 35.0137 26.818 35.0137 20.5088C35.0137 20.5088 34.9751 15.8044 34.9782 12.79C34.9786 12.4544 35.2069 12.3873 35.4488 12.3873C36.9926 12.3873 38.251 12.3873 40.0465 12.3873C40.315 12.3873 40.4878 12.5886 40.4878 12.79C40.4878 12.9913 40.5395 22.0131 40.551 22.623C40.5846 24.4017 41.7256 25.2743 43.303 25.375C44.5648 25.4555 44.8355 24.6031 44.8131 24.1668L44.746 12.79C44.7729 12.3873 45.0145 12.3873 45.1823 12.3873L49.1088 12.3537C50.1559 12.3537 50.0123 12.6893 50.0149 13.092C50.0485 18.2043 50.129 28.892 50.1827 30.7445C50.2499 33.0602 48.6725 36.584 44.3097 36.7853C39.947 36.9867 37.7656 36.1812 37.0944 35.9128C36.5574 35.698 36.4903 35.3087 36.5239 35.1409C36.4791 34.4473 36.3896 32.9662 36.3896 32.5903C36.3896 32.1205 36.4232 31.7513 37.0944 31.8856C40.7457 32.4494 43.1352 32.21 43.8735 32.0198C44.9474 31.805 44.7796 30.9459 44.6789 29.8049Z" fill="#FEED00"/>
<path d="M24.3772 57.717L24.2765 47.8504C24.2639 46.6154 23.7396 46.8436 23.3704 46.8436L19.209 47.0114C18.4036 47.0651 18.5714 47.5483 18.5714 47.9175L18.6385 53.4884C18.6385 54.4952 16.8934 54.3547 15.9201 53.9247C14.4771 53.2871 14.2421 51.9223 14.2086 51.1057C14.1638 49.629 14.0878 46.1858 14.1415 44.2259C14.1952 42.266 15.7971 41.3733 16.5913 41.1719C18.37 40.7692 23.1019 41.2726 23.6053 41.3062C24.1087 41.3397 24.2765 41.3062 24.2765 40.6014V37.0441C24.2765 36.5071 24.2765 36.5071 23.6053 36.3393C16.0879 34.4935 13.5374 35.4668 10.7519 37.8495C7.96643 40.2323 7.73151 43.6554 8.16779 50.9043C8.60406 58.1533 13.5709 59.5292 16.8934 59.6635C19.5513 59.7708 22.565 59.1265 23.7396 58.7909C24.4376 58.5761 24.3772 58.1533 24.3772 57.717Z" fill="#E30713"/>
<path d="M61.3066 17.9604C61.3066 14.7103 63.6405 12.0755 66.5195 12.0755H127.787C130.666 12.0755 133 14.7103 133 17.9604V25.758C133 29.0081 130.666 31.6429 127.787 31.6429H66.5195C63.6405 31.6429 61.3066 29.0081 61.3066 25.758V17.9604Z" fill="#FEED00"/>
<g filter="url(#filter0_d_40_635)">
<path d="M124.781 27.0165C124.237 27.0165 123.749 26.9344 123.318 26.7701C122.897 26.6059 122.538 26.3852 122.24 26.1081C121.953 25.8309 121.737 25.5178 121.594 25.1688L122.856 24.6145C123.021 24.9327 123.267 25.1945 123.595 25.3998C123.924 25.6051 124.288 25.7077 124.689 25.7077C125.13 25.7077 125.494 25.6256 125.782 25.4614C126.069 25.2971 126.213 25.0662 126.213 24.7685C126.213 24.4811 126.105 24.2553 125.89 24.091C125.674 23.9268 125.361 23.7933 124.95 23.6907L124.227 23.5059C123.508 23.3109 122.949 23.0183 122.548 22.6283C122.158 22.2382 121.963 21.7968 121.963 21.3041C121.963 20.5548 122.205 19.9748 122.687 19.5642C123.169 19.1536 123.883 18.9483 124.827 18.9483C125.289 18.9483 125.71 19.015 126.09 19.1485C126.48 19.2819 126.808 19.4718 127.075 19.7182C127.352 19.9645 127.547 20.2571 127.66 20.5958L126.428 21.1501C126.305 20.8422 126.095 20.6164 125.797 20.4727C125.5 20.3187 125.151 20.2417 124.75 20.2417C124.34 20.2417 124.016 20.3341 123.78 20.5188C123.544 20.6933 123.426 20.9397 123.426 21.2579C123.426 21.4324 123.524 21.6018 123.719 21.766C123.924 21.92 124.222 22.0483 124.612 22.151L125.443 22.3511C125.946 22.4743 126.362 22.6642 126.69 22.9208C127.019 23.1672 127.265 23.4495 127.429 23.7677C127.594 24.0756 127.676 24.399 127.676 24.7377C127.676 25.1996 127.547 25.6051 127.291 25.9541C127.044 26.2928 126.701 26.5546 126.259 26.7393C125.828 26.9241 125.335 27.0165 124.781 27.0165Z" fill="#153F93"/>
</g>
<g filter="url(#filter1_d_40_635)">
<path d="M119.549 27.0156C118.78 27.0156 118.184 26.8205 117.763 26.4305C117.342 26.0301 117.132 25.4604 117.132 24.7214V16.7302H118.595V24.5058C118.595 24.8856 118.687 25.1782 118.872 25.3834C119.067 25.5785 119.344 25.676 119.703 25.676C119.806 25.676 119.919 25.6555 120.042 25.6144C120.165 25.5733 120.314 25.4912 120.489 25.3681L121.043 26.5074C120.776 26.682 120.519 26.8103 120.273 26.8924C120.037 26.9745 119.796 27.0156 119.549 27.0156ZM115.823 20.3947V19.1322H120.781V20.3947H115.823Z" fill="#153F93"/>
</g>
<g filter="url(#filter2_d_40_635)">
<path d="M112.564 22.6911C112.564 21.8596 112.724 21.1821 113.042 20.6586C113.36 20.1351 113.771 19.745 114.274 19.4884C114.777 19.2318 115.305 19.1035 115.859 19.1035V20.4892C115.398 20.4892 114.956 20.5611 114.535 20.7048C114.125 20.8382 113.786 21.0641 113.519 21.3823C113.262 21.6902 113.134 22.1111 113.134 22.6449L112.564 22.6911ZM111.671 26.8329V19.1343H113.134V26.8329H111.671Z" fill="#153F93"/>
</g>
<g filter="url(#filter3_d_40_635)">
<path d="M106.681 27.0165C105.911 27.0165 105.234 26.8471 104.648 26.5084C104.063 26.1594 103.601 25.6821 103.263 25.0764C102.934 24.4708 102.77 23.7728 102.77 22.9824C102.77 22.192 102.934 21.494 103.263 20.8884C103.591 20.2828 104.048 19.8106 104.633 19.4718C105.218 19.1228 105.891 18.9483 106.65 18.9483C107.41 18.9483 108.082 19.1228 108.667 19.4718C109.252 19.8106 109.709 20.2828 110.038 20.8884C110.366 21.494 110.53 22.192 110.53 22.9824C110.53 23.7728 110.366 24.4708 110.038 25.0764C109.709 25.6821 109.252 26.1594 108.667 26.5084C108.092 26.8471 107.43 27.0165 106.681 27.0165ZM106.681 25.6769C107.143 25.6769 107.553 25.564 107.913 25.3382C108.272 25.1021 108.549 24.7839 108.744 24.3836C108.949 23.9832 109.052 23.5162 109.052 22.9824C109.052 22.4486 108.949 21.9816 108.744 21.5813C108.549 21.1809 108.267 20.8679 107.897 20.642C107.528 20.4059 107.112 20.2879 106.65 20.2879C106.178 20.2879 105.762 20.4059 105.403 20.642C105.044 20.8679 104.761 21.1809 104.556 21.5813C104.351 21.9816 104.248 22.4486 104.248 22.9824C104.248 23.5162 104.351 23.9832 104.556 24.3836C104.761 24.7839 105.049 25.1021 105.418 25.3382C105.788 25.564 106.209 25.6769 106.681 25.6769Z" fill="#153F93"/>
</g>
<g filter="url(#filter4_d_40_635)">
<path d="M97.4939 27.0171C96.4674 27.0171 95.5539 26.7811 94.7532 26.3089C93.9526 25.8264 93.3264 25.1695 92.8747 24.338C92.4231 23.4963 92.1973 22.5314 92.1973 21.4433C92.1973 20.3553 92.4231 19.3955 92.8747 18.564C93.3264 17.7223 93.9474 17.0654 94.7378 16.5932C95.5282 16.1107 96.4366 15.8695 97.4631 15.8695C98.1303 15.8695 98.7668 15.9927 99.3724 16.2391C99.978 16.4751 100.517 16.8088 100.989 17.2399C101.472 17.6607 101.841 18.1534 102.098 18.718L100.743 19.3339C100.548 18.913 100.281 18.5486 99.9421 18.2407C99.6034 17.9328 99.2184 17.6915 98.7873 17.517C98.3664 17.3425 97.9251 17.2553 97.4631 17.2553C96.7446 17.2553 96.103 17.4349 95.5385 17.7942C94.9739 18.1534 94.5325 18.6462 94.2143 19.2723C93.8961 19.8985 93.737 20.6221 93.737 21.4433C93.737 22.2645 93.8961 22.9933 94.2143 23.6297C94.5428 24.2662 94.9893 24.764 95.5539 25.1233C96.1287 25.4723 96.7805 25.6468 97.5093 25.6468C97.9815 25.6468 98.428 25.5544 98.8489 25.3696C99.2697 25.1746 99.6444 24.9129 99.9729 24.5844C100.312 24.2456 100.584 23.8607 100.789 23.4296L102.144 24.0301C101.887 24.6152 101.523 25.1335 101.051 25.5852C100.579 26.0369 100.034 26.391 99.4186 26.6476C98.813 26.894 98.1714 27.0171 97.4939 27.0171Z" fill="#153F93"/>
</g>
<g filter="url(#filter5_d_40_635)">
<path d="M85.3 27.0165C84.756 27.0165 84.2684 26.9344 83.8373 26.7701C83.4164 26.6059 83.0572 26.3852 82.7595 26.1081C82.4721 25.8309 82.2565 25.5178 82.1128 25.1688L83.3754 24.6145C83.5396 24.9327 83.786 25.1945 84.1144 25.3998C84.4429 25.6051 84.8073 25.7077 85.2076 25.7077C85.649 25.7077 86.0134 25.6256 86.3009 25.4614C86.5883 25.2971 86.732 25.0662 86.732 24.7685C86.732 24.4811 86.6242 24.2553 86.4086 24.091C86.1931 23.9268 85.88 23.7933 85.4694 23.6907L84.7457 23.5059C84.0272 23.3109 83.4678 23.0183 83.0674 22.6283C82.6774 22.2382 82.4823 21.7968 82.4823 21.3041C82.4823 20.5548 82.7236 19.9748 83.206 19.5642C83.6884 19.1536 84.4019 18.9483 85.3462 18.9483C85.8081 18.9483 86.229 19.015 86.6088 19.1485C86.9989 19.2819 87.3273 19.4718 87.5942 19.7182C87.8714 19.9645 88.0664 20.2571 88.1793 20.5958L86.9475 21.1501C86.8244 20.8422 86.6139 20.6164 86.3162 20.4727C86.0186 20.3187 85.6696 20.2417 85.2692 20.2417C84.8586 20.2417 84.5353 20.3341 84.2992 20.5188C84.0631 20.6933 83.9451 20.9397 83.9451 21.2579C83.9451 21.4324 84.0426 21.6018 84.2376 21.766C84.4429 21.92 84.7406 22.0483 85.1307 22.151L85.9621 22.3511C86.4651 22.4743 86.8808 22.6642 87.2093 22.9208C87.5378 23.1672 87.7841 23.4495 87.9484 23.7677C88.1126 24.0756 88.1947 24.399 88.1947 24.7377C88.1947 25.1996 88.0664 25.6051 87.8098 25.9541C87.5634 26.2928 87.2196 26.5546 86.7782 26.7393C86.347 26.9241 85.8543 27.0165 85.3 27.0165Z" fill="#153F93"/>
</g>
<g filter="url(#filter6_d_40_635)">
<path d="M77.9736 27.0165C77.2242 27.0165 76.5622 26.8471 75.9873 26.5084C75.4125 26.1594 74.9608 25.6821 74.6324 25.0764C74.3039 24.4708 74.1396 23.7728 74.1396 22.9824C74.1396 22.192 74.3039 21.494 74.6324 20.8884C74.9608 20.2828 75.4125 19.8106 75.9873 19.4718C76.5724 19.1228 77.2396 18.9483 77.989 18.9483C78.6972 18.9483 79.3183 19.128 79.852 19.4872C80.3858 19.8362 80.8015 20.3392 81.0992 20.9962C81.4072 21.6428 81.5611 22.4076 81.5611 23.2904H75.3406L75.6178 23.0594C75.6178 23.6034 75.7256 24.0756 75.9411 24.4759C76.1567 24.8763 76.4492 25.1842 76.8188 25.3998C77.1883 25.6051 77.6092 25.7077 78.0814 25.7077C78.5946 25.7077 79.0206 25.5897 79.3593 25.3536C79.7083 25.1072 79.9803 24.7993 80.1754 24.4298L81.438 25.0149C81.2327 25.4152 80.9658 25.7693 80.6373 26.0773C80.3088 26.3749 79.9188 26.6059 79.4671 26.7701C79.0257 26.9344 78.5279 27.0165 77.9736 27.0165ZM75.7102 22.3665L75.4176 22.1356H80.2832L80.006 22.3665C80.006 21.9149 79.9136 21.5299 79.7289 21.2117C79.5441 20.8832 79.2977 20.6369 78.9898 20.4727C78.6818 20.2982 78.338 20.2109 77.9582 20.2109C77.5886 20.2109 77.2294 20.2982 76.8804 20.4727C76.5416 20.6369 76.2593 20.8781 76.0335 21.1963C75.818 21.5145 75.7102 21.9046 75.7102 22.3665Z" fill="#153F93"/>
</g>
<g filter="url(#filter7_d_40_635)">
<path d="M67.312 26.8318V16.0537H68.8209V25.4461H73.8251V26.8318H67.312Z" fill="#153F93"/>
</g>
<defs>
<filter id="filter0_d_40_635" x="118.341" y="16.0228" width="12.5869" height="14.573" filterUnits="userSpaceOnUse" color-interpolation-filters="sRGB">
<feFlood flood-opacity="0" result="BackgroundImageFix"/>
<feColorMatrix in="SourceAlpha" type="matrix" values="0 0 0 0 0 0 0 0 0 0 0 0 0 0 0 0 0 0 127 0" result="hardAlpha"/>
<feOffset dy="0.326876"/>
<feGaussianBlur stdDeviation="1.62621"/>
<feComposite in2="hardAlpha" operator="out"/>
<feColorMatrix type="matrix" values="0 0 0 0 0 0 0 0 0 0 0 0 0 0 0 0 0 0 0.15 0"/>
<feBlend mode="normal" in2="BackgroundImageFix" result="effect1_dropShadow_40_635"/>
<feBlend mode="normal" in="SourceGraphic" in2="effect1_dropShadow_40_635" result="shape"/>
</filter>
<filter id="filter1_d_40_635" x="112.571" y="13.8046" width="11.7246" height="16.7902" filterUnits="userSpaceOnUse" color-interpolation-filters="sRGB">
<feFlood flood-opacity="0" result="BackgroundImageFix"/>
<feColorMatrix in="SourceAlpha" type="matrix" values="0 0 0 0 0 0 0 0 0 0 0 0 0 0 0 0 0 0 127 0" result="hardAlpha"/>
<feOffset dy="0.326876"/>
<feGaussianBlur stdDeviation="1.62621"/>
<feComposite in2="hardAlpha" operator="out"/>
<feColorMatrix type="matrix" values="0 0 0 0 0 0 0 0 0 0 0 0 0 0 0 0 0 0 0.15 0"/>
<feBlend mode="normal" in2="BackgroundImageFix" result="effect1_dropShadow_40_635"/>
<feBlend mode="normal" in="SourceGraphic" in2="effect1_dropShadow_40_635" result="shape"/>
</filter>
<filter id="filter2_d_40_635" x="108.419" y="16.1779" width="10.6928" height="14.2343" filterUnits="userSpaceOnUse" color-interpolation-filters="sRGB">
<feFlood flood-opacity="0" result="BackgroundImageFix"/>
<feColorMatrix in="SourceAlpha" type="matrix" values="0 0 0 0 0 0 0 0 0 0 0 0 0 0 0 0 0 0 127 0" result="hardAlpha"/>
<feOffset dy="0.326876"/>
<feGaussianBlur stdDeviation="1.62621"/>
<feComposite in2="hardAlpha" operator="out"/>
<feColorMatrix type="matrix" values="0 0 0 0 0 0 0 0 0 0 0 0 0 0 0 0 0 0 0.15 0"/>
<feBlend mode="normal" in2="BackgroundImageFix" result="effect1_dropShadow_40_635"/>
<feBlend mode="normal" in="SourceGraphic" in2="effect1_dropShadow_40_635" result="shape"/>
</filter>
<filter id="filter3_d_40_635" x="99.5176" y="16.0228" width="14.2651" height="14.573" filterUnits="userSpaceOnUse" color-interpolation-filters="sRGB">
<feFlood flood-opacity="0" result="BackgroundImageFix"/>
<feColorMatrix in="SourceAlpha" type="matrix" values="0 0 0 0 0 0 0 0 0 0 0 0 0 0 0 0 0 0 127 0" result="hardAlpha"/>
<feOffset dy="0.326876"/>
<feGaussianBlur stdDeviation="1.62621"/>
<feComposite in2="hardAlpha" operator="out"/>
<feColorMatrix type="matrix" values="0 0 0 0 0 0 0 0 0 0 0 0 0 0 0 0 0 0 0.15 0"/>
<feBlend mode="normal" in2="BackgroundImageFix" result="effect1_dropShadow_40_635"/>
<feBlend mode="normal" in="SourceGraphic" in2="effect1_dropShadow_40_635" result="shape"/>
</filter>
<filter id="filter4_d_40_635" x="88.9448" y="12.944" width="16.4516" height="17.6525" filterUnits="userSpaceOnUse" color-interpolation-filters="sRGB">
<feFlood flood-opacity="0" result="BackgroundImageFix"/>
<feColorMatrix in="SourceAlpha" type="matrix" values="0 0 0 0 0 0 0 0 0 0 0 0 0 0 0 0 0 0 127 0" result="hardAlpha"/>
<feOffset dy="0.326876"/>
<feGaussianBlur stdDeviation="1.62621"/>
<feComposite in2="hardAlpha" operator="out"/>
<feColorMatrix type="matrix" values="0 0 0 0 0 0 0 0 0 0 0 0 0 0 0 0 0 0 0.15 0"/>
<feBlend mode="normal" in2="BackgroundImageFix" result="effect1_dropShadow_40_635"/>
<feBlend mode="normal" in="SourceGraphic" in2="effect1_dropShadow_40_635" result="shape"/>
</filter>
<filter id="filter5_d_40_635" x="78.8604" y="16.0228" width="12.5869" height="14.573" filterUnits="userSpaceOnUse" color-interpolation-filters="sRGB">
<feFlood flood-opacity="0" result="BackgroundImageFix"/>
<feColorMatrix in="SourceAlpha" type="matrix" values="0 0 0 0 0 0 0 0 0 0 0 0 0 0 0 0 0 0 127 0" result="hardAlpha"/>
<feOffset dy="0.326876"/>
<feGaussianBlur stdDeviation="1.62621"/>
<feComposite in2="hardAlpha" operator="out"/>
<feColorMatrix type="matrix" values="0 0 0 0 0 0 0 0 0 0 0 0 0 0 0 0 0 0 0.15 0"/>
<feBlend mode="normal" in2="BackgroundImageFix" result="effect1_dropShadow_40_635"/>
<feBlend mode="normal" in="SourceGraphic" in2="effect1_dropShadow_40_635" result="shape"/>
</filter>
<filter id="filter6_d_40_635" x="70.8872" y="16.0228" width="13.9262" height="14.573" filterUnits="userSpaceOnUse" color-interpolation-filters="sRGB">
<feFlood flood-opacity="0" result="BackgroundImageFix"/>
<feColorMatrix in="SourceAlpha" type="matrix" values="0 0 0 0 0 0 0 0 0 0 0 0 0 0 0 0 0 0 127 0" result="hardAlpha"/>
<feOffset dy="0.326876"/>
<feGaussianBlur stdDeviation="1.62621"/>
<feComposite in2="hardAlpha" operator="out"/>
<feColorMatrix type="matrix" values="0 0 0 0 0 0 0 0 0 0 0 0 0 0 0 0 0 0 0.15 0"/>
<feBlend mode="normal" in2="BackgroundImageFix" result="effect1_dropShadow_40_635"/>
<feBlend mode="normal" in="SourceGraphic" in2="effect1_dropShadow_40_635" result="shape"/>
</filter>
<filter id="filter7_d_40_635" x="64.0596" y="13.1282" width="13.018" height="17.2829" filterUnits="userSpaceOnUse" color-interpolation-filters="sRGB">
<feFlood flood-opacity="0" result="BackgroundImageFix"/>
<feColorMatrix in="SourceAlpha" type="matrix" values="0 0 0 0 0 0 0 0 0 0 0 0 0 0 0 0 0 0 127 0" result="hardAlpha"/>
<feOffset dy="0.326876"/>
<feGaussianBlur stdDeviation="1.62621"/>
<feComposite in2="hardAlpha" operator="out"/>
<feColorMatrix type="matrix" values="0 0 0 0 0 0 0 0 0 0 0 0 0 0 0 0 0 0 0.15 0"/>
<feBlend mode="normal" in2="BackgroundImageFix" result="effect1_dropShadow_40_635"/>
<feBlend mode="normal" in="SourceGraphic" in2="effect1_dropShadow_40_635" result="shape"/>
</filter>
</defs>
</svg>
