<svg width="48" height="48" viewBox="0 0 48 48" fill="none" xmlns="http://www.w3.org/2000/svg">
<g clip-path="url(#clip0_40_228)">
<path d="M39 47.4H8.5C3.8 47.4 0 43.6 0 39V8.5C0 3.8 3.8 0 8.5 0H39C43.7 0 47.5 3.8 47.5 8.5V39C47.4 43.6 43.6 47.4 39 47.4Z" fill="#57F676"/>
<path fill-rule="evenodd" clip-rule="evenodd" d="M36.7001 23.1002C36.5001 16.2002 30.9001 10.7002 23.9001 10.7002C17.0001 10.7002 11.4001 16.1002 11.1001 22.8002C11.1001 23.0002 11.1001 23.2002 11.1001 23.4002C11.1001 25.8002 11.8001 28.0002 12.9001 29.9002L10.6001 36.7002L17.7001 34.5002C19.5001 35.5002 21.6001 36.1002 23.9001 36.1002C31.0001 36.1002 36.7001 30.4002 36.7001 23.4002C36.7001 23.3002 36.7001 23.2002 36.7001 23.1002ZM23.9001 34.0002C21.7001 34.0002 19.7001 33.4002 18.0001 32.2002L13.9001 33.5002L15.2001 29.5002C13.9001 27.7002 13.2001 25.6002 13.2001 23.3002C13.2001 23.0002 13.2001 22.6002 13.3001 22.3002C13.8001 16.9002 18.4001 12.7002 24.0001 12.7002C29.6001 12.7002 34.3001 17.0002 34.7001 22.5002C34.7001 22.8002 34.7001 23.1002 34.7001 23.3002C34.7001 29.3002 29.9001 34.0002 23.9001 34.0002Z" fill="white"/>
<path fill-rule="evenodd" clip-rule="evenodd" d="M29.8002 25.9002C29.5002 25.7002 27.9002 25.0002 27.7002 24.9002C27.4002 24.8002 27.2002 24.7002 27.0002 25.1002C26.8002 25.4002 26.2002 26.1002 26.0002 26.3002C25.8002 26.5002 25.6002 26.5002 25.3002 26.4002C25.0002 26.2002 24.0002 25.9002 22.8002 24.9002C21.8002 24.0002 21.2002 23.0002 21.0002 22.7002C20.8002 22.4002 21.0002 22.2002 21.1002 22.1002C21.2002 22.0002 21.4002 21.7002 21.6002 21.6002C21.6002 21.5002 21.7002 21.5002 21.7002 21.5002C21.8002 21.4002 21.8002 21.3002 21.9002 21.1002C22.0002 20.9002 22.0002 20.7002 21.9002 20.6002C21.8002 20.4002 21.2002 18.9002 20.9002 18.3002C20.6002 17.7002 20.4002 17.8002 20.2002 17.8002C20.0002 17.8002 19.8002 17.8002 19.6002 17.8002C19.4002 17.8002 19.0002 17.9002 18.8002 18.2002C18.5002 18.5002 17.7002 19.3002 17.7002 20.8002C17.7002 21.2002 17.8002 21.5002 17.9002 21.9002C18.2002 23.0002 18.9002 23.9002 19.0002 24.1002C19.2002 24.3002 21.2002 27.5002 24.3002 28.8002C27.5002 30.0002 27.5002 29.6002 28.1002 29.6002C28.7002 29.6002 30.0002 28.9002 30.2002 28.1002C30.5002 27.4002 30.5002 26.8002 30.4002 26.6002C30.3002 26.2002 30.1002 26.1002 29.8002 25.9002Z" fill="white"/>
</g>
<defs>
<clipPath id="clip0_40_228">
<rect width="47.4" height="47.4" fill="white"/>
</clipPath>
</defs>
</svg>
