<svg width="48" height="48" viewBox="0 0 48 48" fill="none" xmlns="http://www.w3.org/2000/svg">
<path d="M39 47.4H8.5C3.8 47.4 0 43.6 0 39V8.5C0 3.8 3.8 0 8.5 0H39C43.7 0 47.5 3.8 47.5 8.5V39C47.4 43.6 43.6 47.4 39 47.4Z" fill="#C3271A"/>
<path d="M41.9 14.4998C41.5 12.8998 40.2 11.5998 38.5 11.0998C35.5 10.2998 23.7 10.2998 23.7 10.2998C23.7 10.2998 11.8 10.2998 8.89995 11.0998C7.29995 11.4998 5.99995 12.7998 5.49995 14.4998C4.69995 17.4998 4.69995 23.6998 4.69995 23.6998C4.69995 23.6998 4.69995 29.8998 5.49995 32.8998C5.89995 34.4998 7.19995 35.7998 8.89995 36.2998C11.9 37.0998 23.7 37.0998 23.7 37.0998C23.7 37.0998 35.6 37.0998 38.5 36.2998C40.1 35.8998 41.4 34.5998 41.9 32.8998C42.7 29.8998 42.7 23.6998 42.7 23.6998C42.7 23.6998 42.7 17.4998 41.9 14.4998Z" fill="white"/>
<path d="M19.8 29.3996V18.0996L29.8 23.6996L19.8 29.3996Z" fill="#C3271A"/>
</svg>
