<svg width="139" height="111" viewBox="0 0 139 111" fill="none" xmlns="http://www.w3.org/2000/svg">
<path d="M0.558534 37.7999C-2.02627 27.0334 4.6063 16.2101 15.3728 13.6253L69.7996 0.558534C80.5661 -2.02627 91.3894 4.6063 93.9743 15.3728L107.041 69.7996C109.626 80.5661 102.993 91.3894 92.2267 93.9743L37.7999 107.041C27.0334 109.626 16.2101 102.993 13.6253 92.2267L0.558534 37.7999Z" fill="#153F93"/>
<path d="M0.55951 37.8002C-2.0253 27.0337 4.60728 16.2103 15.3738 13.6255L69.8006 0.558778C80.5671 -2.02603 91.3904 4.60654 93.9752 15.373L107.042 69.7998C109.627 80.5663 102.994 91.3897 92.2277 93.9745L37.8009 107.041C27.0344 109.626 16.211 102.993 13.6262 92.227L0.55951 37.8002Z" fill="#153F93"/>
<path d="M21.3213 45.5234L15.121 45.6711C14.186 45.6711 14.2849 45.1303 14.186 43.9985C13.6973 38.4051 13.812 38.7233 13.6939 29.6295C13.5758 20.5357 20.1731 18.1638 23.4865 18.1146C28.6535 18.1146 30.0805 19.8861 30.9663 19.8861C31.7044 19.8861 33.4267 18.1146 38.1508 18.1146C47.6382 18.154 47.9926 25.8891 47.9926 29.6295C48.0582 44.0805 48.1992 73.5042 48.2386 75.5906C48.2878 78.1987 49.9609 79.4781 52.2737 79.6258C54.124 79.7439 54.5209 78.4939 54.4881 77.8542L54.3897 61.1724C54.4291 60.5819 54.7834 60.5819 55.0294 60.5819L60.7869 60.5327C62.3222 60.5327 62.1116 61.0248 62.1155 61.6153C62.1647 69.1115 62.2828 84.7828 62.3615 87.4992C62.46 90.8946 60.1471 96.0615 53.75 96.3568C47.3528 96.652 44.1543 95.471 43.1701 95.0773C42.3827 94.7624 42.2843 94.1916 42.3335 93.9455C42.2679 92.9286 42.1367 90.7568 42.1367 90.2057C42.1367 89.5167 42.1859 88.9754 43.1701 89.1723C48.524 89.999 52.0277 89.648 53.1103 89.3691C54.685 89.0542 54.4389 87.7944 54.2913 86.1213C43.2685 87.696 40.1191 81.7417 40.1191 72.4905L39.9223 29.6295C39.8829 25.0629 38.4952 25.2925 37.5603 25.2494C35.0014 25.1313 35.149 28.4485 35.149 29.2845V43.998C35.149 45.7695 34.3617 45.6218 33.4759 45.6218L28.0137 45.5726C27.1083 45.5333 26.984 45.0806 26.9804 44.5393C26.9475 39.7332 26.9363 29.7853 26.8819 28.4479C26.784 26.0372 26.5871 25.397 24.5691 25.397C22.5511 25.397 22.3729 26.2833 22.3547 29.0877C22.3219 34.1398 22.2563 44.3621 22.2563 44.8345C22.2563 45.3069 21.633 45.4906 21.3213 45.5234Z" fill="#00963F"/>
<path d="M73.5811 87.1544L67.3808 87.3021C66.4458 87.3021 66.5447 86.7613 66.4458 85.6295C65.957 80.0361 66.0718 80.3543 65.9537 71.2605C65.8356 62.1667 72.4329 59.7948 75.7463 59.7456C80.9132 59.7456 82.3403 61.5171 83.226 61.5171C83.9642 61.5171 85.6865 59.7456 90.4105 59.7456C99.898 59.785 100.252 67.5201 100.252 71.2605C100.27 75.2171 100.294 80.296 100.32 85.6289C100.326 87.0073 100.32 87.4502 99.0205 87.4502H93.6076C92.0821 87.4502 92.248 86.8597 92.248 85.6289C92.248 80.0177 92.1821 71.2605 92.1821 71.2605C92.1427 66.6939 90.755 66.9235 89.82 66.8803C87.2612 66.7622 87.4088 70.0795 87.4088 70.9155V85.6289C87.4088 87.4005 86.6215 87.2528 85.7357 87.2528L80.2735 87.2036C79.3681 87.1643 79.2438 86.7115 79.2401 86.1702C79.2073 81.3642 79.1961 71.4163 79.1417 70.0789C79.0437 67.6682 78.8469 67.028 76.8289 67.028C74.8109 67.028 74.6327 67.9143 74.6145 70.7187C74.5817 75.7708 74.5161 85.9931 74.5161 86.4655C74.5161 86.9379 73.8928 87.1216 73.5811 87.1544Z" fill="#E30713"/>
<path d="M65.5125 43.7032C54.4897 45.2779 51.3403 39.3237 51.3403 30.0724C51.3403 30.0724 51.2838 23.1744 51.2884 18.7543C51.2889 18.2623 51.6237 18.1638 51.9784 18.1638C54.242 18.1638 56.0873 18.1639 58.7201 18.1638C59.1137 18.1638 59.3671 18.4591 59.3671 18.7543C59.3671 19.0496 59.4429 32.2782 59.4598 33.1726C59.509 35.7806 61.1821 37.0601 63.4949 37.2077C65.3452 37.3258 65.7421 36.0759 65.7093 35.4362L65.6109 18.7543C65.6503 18.1638 66.0046 18.1638 66.2506 18.1638L72.0081 18.1146C73.5434 18.1146 73.3328 18.6067 73.3367 19.1972C73.3859 26.6934 73.504 42.3648 73.5828 45.0811C73.6812 48.4765 71.3684 53.6434 64.9712 53.9387C58.574 54.234 55.3755 53.0529 54.3913 52.6593C53.6039 52.3443 53.5055 51.7735 53.5547 51.5275C53.4891 50.5105 53.3579 48.3387 53.3579 47.7876C53.3579 47.0987 53.4071 46.5574 54.3913 46.7542C59.7452 47.5809 63.2489 47.2299 64.3315 46.951C65.9062 46.6361 65.6601 45.3764 65.5125 43.7032Z" fill="#FEED00"/>
<path d="M35.744 84.6306L35.5964 70.1632C35.5779 68.3523 34.809 68.6869 34.2677 68.6869L28.1658 68.9329C26.9848 69.0117 27.2309 69.7203 27.2309 70.2616L27.3293 78.4302C27.3293 79.9065 24.7704 79.7005 23.3434 79.07C21.2274 78.135 20.8829 76.1338 20.8337 74.9364C20.7681 72.7712 20.6566 67.7224 20.7353 64.8486C20.814 61.9748 23.1629 60.6658 24.3276 60.3706C26.9356 59.7801 33.8741 60.5182 34.6122 60.5674C35.3503 60.6166 35.5964 60.5674 35.5964 59.534V54.3179C35.5964 53.5306 35.5963 53.5305 34.6122 53.2845C23.5894 50.578 19.8495 52.0051 15.7652 55.4989C11.6808 58.9927 11.3364 64.012 11.9761 74.6412C12.6158 85.2703 19.8987 87.2879 24.7704 87.4847C28.6678 87.6422 33.0867 86.6974 34.809 86.2053C35.8326 85.8903 35.744 85.2703 35.744 84.6306Z" fill="#E30713"/>
<path d="M66 96.9662C66 93.6712 68.3661 91 71.2849 91H133.399C136.318 91 138.684 93.6712 138.684 96.9662V104.872C138.684 108.167 136.318 110.838 133.399 110.838H71.2849C68.3661 110.838 66 108.167 66 104.872V96.9662Z" fill="#FEED00"/>
<g filter="url(#filter0_d_152_162)">
<path d="M130.351 106.147C129.8 106.147 129.306 106.064 128.868 105.897C128.442 105.731 128.078 105.507 127.776 105.226C127.484 104.945 127.266 104.627 127.12 104.274L128.4 103.712C128.567 104.034 128.816 104.3 129.149 104.508C129.482 104.716 129.852 104.82 130.258 104.82C130.705 104.82 131.075 104.737 131.366 104.57C131.657 104.404 131.803 104.17 131.803 103.868C131.803 103.576 131.694 103.347 131.475 103.181C131.257 103.014 130.939 102.879 130.523 102.775L129.789 102.588C129.061 102.39 128.494 102.093 128.088 101.698C127.692 101.302 127.495 100.855 127.495 100.355C127.495 99.5958 127.739 99.0078 128.228 98.5915C128.718 98.1753 129.441 97.9671 130.398 97.9671C130.867 97.9671 131.293 98.0348 131.678 98.1701C132.074 98.3054 132.407 98.4979 132.677 98.7477C132.958 98.9974 133.156 99.294 133.27 99.6374L132.022 100.199C131.897 99.8872 131.683 99.6582 131.382 99.5125C131.08 99.3564 130.726 99.2784 130.32 99.2784C129.904 99.2784 129.576 99.3721 129.337 99.5594C129.097 99.7363 128.978 99.986 128.978 100.309C128.978 100.486 129.077 100.657 129.274 100.824C129.482 100.98 129.784 101.11 130.18 101.214L131.023 101.417C131.533 101.542 131.954 101.734 132.287 101.995C132.62 102.244 132.87 102.53 133.036 102.853C133.203 103.165 133.286 103.493 133.286 103.837C133.286 104.305 133.156 104.716 132.896 105.07C132.646 105.413 132.297 105.679 131.85 105.866C131.413 106.053 130.913 106.147 130.351 106.147Z" fill="#153F93"/>
</g>
<g filter="url(#filter1_d_152_162)">
<path d="M125.047 106.147C124.267 106.147 123.663 105.949 123.236 105.554C122.81 105.148 122.596 104.57 122.596 103.821V95.7195H124.079V103.603C124.079 103.988 124.173 104.284 124.36 104.492C124.558 104.69 124.839 104.789 125.203 104.789C125.307 104.789 125.422 104.768 125.547 104.726C125.672 104.685 125.822 104.602 125.999 104.477L126.561 105.632C126.291 105.809 126.031 105.939 125.781 106.022C125.541 106.105 125.297 106.147 125.047 106.147ZM121.27 99.4347V98.1546H126.296V99.4347H121.27Z" fill="#153F93"/>
</g>
<g filter="url(#filter2_d_152_162)">
<path d="M117.967 101.761C117.967 100.918 118.128 100.231 118.451 99.7001C118.773 99.1693 119.19 98.7739 119.7 98.5137C120.21 98.2535 120.745 98.1235 121.307 98.1235V99.5284C120.839 99.5284 120.392 99.6012 119.965 99.7469C119.549 99.8822 119.205 100.111 118.935 100.434C118.675 100.746 118.544 101.173 118.544 101.714L117.967 101.761ZM117.062 105.96V98.1547H118.544V105.96H117.062Z" fill="#153F93"/>
</g>
<g filter="url(#filter3_d_152_162)">
<path d="M112.002 106.147C111.222 106.147 110.535 105.975 109.942 105.632C109.348 105.278 108.88 104.794 108.537 104.18C108.204 103.566 108.037 102.858 108.037 102.057C108.037 101.256 108.204 100.548 108.537 99.934C108.87 99.32 109.333 98.8413 109.926 98.4979C110.519 98.1441 111.201 97.9671 111.971 97.9671C112.741 97.9671 113.423 98.1441 114.016 98.4979C114.609 98.8413 115.072 99.32 115.405 99.934C115.738 100.548 115.905 101.256 115.905 102.057C115.905 102.858 115.738 103.566 115.405 104.18C115.072 104.794 114.609 105.278 114.016 105.632C113.433 105.975 112.762 106.147 112.002 106.147ZM112.002 104.789C112.47 104.789 112.887 104.674 113.251 104.445C113.615 104.206 113.896 103.883 114.094 103.477C114.302 103.072 114.406 102.598 114.406 102.057C114.406 101.516 114.302 101.042 114.094 100.636C113.896 100.231 113.61 99.9132 113.235 99.6843C112.861 99.4449 112.439 99.3252 111.971 99.3252C111.492 99.3252 111.071 99.4449 110.706 99.6843C110.342 99.9132 110.056 100.231 109.848 100.636C109.64 101.042 109.536 101.516 109.536 102.057C109.536 102.598 109.64 103.072 109.848 103.477C110.056 103.883 110.347 104.206 110.722 104.445C111.097 104.674 111.523 104.789 112.002 104.789Z" fill="#153F93"/>
</g>
<g filter="url(#filter4_d_152_162)">
<path d="M102.688 106.147C101.648 106.147 100.721 105.908 99.9096 105.429C99.0979 104.94 98.4631 104.274 98.0052 103.431C97.5473 102.577 97.3184 101.599 97.3184 100.496C97.3184 99.393 97.5473 98.42 98.0052 97.577C98.4631 96.7237 99.0927 96.0576 99.894 95.5789C100.695 95.0898 101.616 94.8453 102.657 94.8453C103.333 94.8453 103.979 94.9701 104.593 95.2199C105.207 95.4593 105.753 95.7975 106.232 96.2346C106.721 96.6612 107.095 97.1608 107.356 97.7331L105.982 98.3575C105.784 97.9308 105.514 97.5614 105.17 97.2492C104.827 96.937 104.437 96.6925 103.999 96.5155C103.573 96.3386 103.125 96.2502 102.657 96.2502C101.929 96.2502 101.278 96.4323 100.706 96.7965C100.133 97.1608 99.6859 97.6603 99.3633 98.2951C99.0407 98.9299 98.8794 99.6636 98.8794 100.496C98.8794 101.329 99.0407 102.068 99.3633 102.713C99.6963 103.358 100.149 103.863 100.721 104.227C101.304 104.581 101.965 104.758 102.704 104.758C103.183 104.758 103.635 104.664 104.062 104.477C104.489 104.279 104.868 104.014 105.201 103.681C105.545 103.337 105.821 102.947 106.029 102.51L107.402 103.119C107.142 103.712 106.773 104.237 106.294 104.695C105.815 105.153 105.264 105.512 104.639 105.772C104.025 106.022 103.375 106.147 102.688 106.147Z" fill="#153F93"/>
</g>
<g filter="url(#filter5_d_152_162)">
<path d="M90.325 106.147C89.7735 106.147 89.2792 106.064 88.8421 105.897C88.4154 105.731 88.0512 105.507 87.7494 105.226C87.458 104.945 87.2394 104.627 87.0938 104.274L88.3738 103.712C88.5403 104.034 88.79 104.3 89.1231 104.508C89.4561 104.716 89.8255 104.82 90.2314 104.82C90.6789 104.82 91.0483 104.737 91.3397 104.57C91.6311 104.404 91.7768 104.17 91.7768 103.868C91.7768 103.576 91.6675 103.347 91.449 103.181C91.2304 103.014 90.913 102.879 90.4967 102.775L89.7631 102.588C89.0346 102.39 88.4674 102.093 88.0616 101.698C87.6661 101.302 87.4684 100.855 87.4684 100.355C87.4684 99.5958 87.7129 99.0078 88.2021 98.5915C88.6912 98.1753 89.4144 97.9671 90.3719 97.9671C90.8402 97.9671 91.2668 98.0348 91.6519 98.1701C92.0473 98.3054 92.3804 98.4979 92.6509 98.7477C92.9319 98.9974 93.1296 99.294 93.2441 99.6374L91.9953 100.199C91.8704 99.8872 91.6571 99.6582 91.3553 99.5125C91.0535 99.3564 90.6997 99.2784 90.2938 99.2784C89.8775 99.2784 89.5497 99.3721 89.3104 99.5594C89.071 99.7363 88.9513 99.986 88.9513 100.309C88.9513 100.486 89.0502 100.657 89.2479 100.824C89.4561 100.98 89.7579 101.11 90.1533 101.214L90.9963 101.417C91.5062 101.542 91.9277 101.734 92.2607 101.995C92.5937 102.244 92.8435 102.53 93.01 102.853C93.1765 103.165 93.2597 103.493 93.2597 103.837C93.2597 104.305 93.1296 104.716 92.8695 105.07C92.6197 105.413 92.2711 105.679 91.8236 105.866C91.3865 106.053 90.887 106.147 90.325 106.147Z" fill="#153F93"/>
</g>
<g filter="url(#filter6_d_152_162)">
<path d="M82.8976 106.147C82.138 106.147 81.4667 105.975 80.8839 105.632C80.3012 105.278 79.8433 104.794 79.5103 104.18C79.1772 103.566 79.0107 102.858 79.0107 102.057C79.0107 101.256 79.1772 100.548 79.5103 99.934C79.8433 99.32 80.3012 98.8413 80.8839 98.4979C81.4771 98.1441 82.1536 97.9671 82.9133 97.9671C83.6313 97.9671 84.2609 98.1493 84.8021 98.5135C85.3432 98.8673 85.7647 99.3773 86.0665 100.043C86.3787 100.699 86.5348 101.474 86.5348 102.369H80.2283L80.5093 102.135C80.5093 102.687 80.6186 103.165 80.8371 103.571C81.0557 103.977 81.3523 104.289 81.7269 104.508C82.1015 104.716 82.5282 104.82 83.0069 104.82C83.5273 104.82 83.9591 104.7 84.3025 104.461C84.6564 104.211 84.9322 103.899 85.1299 103.524L86.4099 104.118C86.2018 104.523 85.9312 104.882 85.5982 105.195C85.2652 105.496 84.8697 105.731 84.4118 105.897C83.9643 106.064 83.4596 106.147 82.8976 106.147ZM80.603 101.433L80.3064 101.198H85.2392L84.9582 101.433C84.9582 100.975 84.8645 100.584 84.6772 100.262C84.4899 99.9288 84.2401 99.6791 83.9279 99.5125C83.6157 99.3356 83.2671 99.2472 82.882 99.2472C82.5074 99.2472 82.1432 99.3356 81.7893 99.5125C81.4459 99.6791 81.1597 99.9236 80.9308 100.246C80.7122 100.569 80.603 100.964 80.603 101.433Z" fill="#153F93"/>
</g>
<g filter="url(#filter7_d_152_162)">
<path d="M72.0889 105.96V95.0326H73.6187V104.555H78.6919V105.96H72.0889Z" fill="#153F93"/>
</g>
<defs>
<filter id="filter0_d_152_162" x="123.868" y="95.0416" width="12.6709" height="14.6845" filterUnits="userSpaceOnUse" color-interpolation-filters="sRGB">
<feFlood flood-opacity="0" result="BackgroundImageFix"/>
<feColorMatrix in="SourceAlpha" type="matrix" values="0 0 0 0 0 0 0 0 0 0 0 0 0 0 0 0 0 0 127 0" result="hardAlpha"/>
<feOffset dy="0.326876"/>
<feGaussianBlur stdDeviation="1.62621"/>
<feComposite in2="hardAlpha" operator="out"/>
<feColorMatrix type="matrix" values="0 0 0 0 0 0 0 0 0 0 0 0 0 0 0 0 0 0 0.15 0"/>
<feBlend mode="normal" in2="BackgroundImageFix" result="effect1_dropShadow_152_162"/>
<feBlend mode="normal" in="SourceGraphic" in2="effect1_dropShadow_152_162" result="shape"/>
</filter>
<filter id="filter1_d_152_162" x="118.017" y="92.7939" width="11.7968" height="16.9324" filterUnits="userSpaceOnUse" color-interpolation-filters="sRGB">
<feFlood flood-opacity="0" result="BackgroundImageFix"/>
<feColorMatrix in="SourceAlpha" type="matrix" values="0 0 0 0 0 0 0 0 0 0 0 0 0 0 0 0 0 0 127 0" result="hardAlpha"/>
<feOffset dy="0.326876"/>
<feGaussianBlur stdDeviation="1.62621"/>
<feComposite in2="hardAlpha" operator="out"/>
<feColorMatrix type="matrix" values="0 0 0 0 0 0 0 0 0 0 0 0 0 0 0 0 0 0 0.15 0"/>
<feBlend mode="normal" in2="BackgroundImageFix" result="effect1_dropShadow_152_162"/>
<feBlend mode="normal" in="SourceGraphic" in2="effect1_dropShadow_152_162" result="shape"/>
</filter>
<filter id="filter2_d_152_162" x="113.809" y="95.1979" width="10.7509" height="14.3411" filterUnits="userSpaceOnUse" color-interpolation-filters="sRGB">
<feFlood flood-opacity="0" result="BackgroundImageFix"/>
<feColorMatrix in="SourceAlpha" type="matrix" values="0 0 0 0 0 0 0 0 0 0 0 0 0 0 0 0 0 0 127 0" result="hardAlpha"/>
<feOffset dy="0.326876"/>
<feGaussianBlur stdDeviation="1.62621"/>
<feComposite in2="hardAlpha" operator="out"/>
<feColorMatrix type="matrix" values="0 0 0 0 0 0 0 0 0 0 0 0 0 0 0 0 0 0 0.15 0"/>
<feBlend mode="normal" in2="BackgroundImageFix" result="effect1_dropShadow_152_162"/>
<feBlend mode="normal" in="SourceGraphic" in2="effect1_dropShadow_152_162" result="shape"/>
</filter>
<filter id="filter3_d_152_162" x="104.785" y="95.0416" width="14.372" height="14.6845" filterUnits="userSpaceOnUse" color-interpolation-filters="sRGB">
<feFlood flood-opacity="0" result="BackgroundImageFix"/>
<feColorMatrix in="SourceAlpha" type="matrix" values="0 0 0 0 0 0 0 0 0 0 0 0 0 0 0 0 0 0 127 0" result="hardAlpha"/>
<feOffset dy="0.326876"/>
<feGaussianBlur stdDeviation="1.62621"/>
<feComposite in2="hardAlpha" operator="out"/>
<feColorMatrix type="matrix" values="0 0 0 0 0 0 0 0 0 0 0 0 0 0 0 0 0 0 0.15 0"/>
<feBlend mode="normal" in2="BackgroundImageFix" result="effect1_dropShadow_152_162"/>
<feBlend mode="normal" in="SourceGraphic" in2="effect1_dropShadow_152_162" result="shape"/>
</filter>
<filter id="filter4_d_152_162" x="94.0659" y="91.9197" width="16.5888" height="17.8065" filterUnits="userSpaceOnUse" color-interpolation-filters="sRGB">
<feFlood flood-opacity="0" result="BackgroundImageFix"/>
<feColorMatrix in="SourceAlpha" type="matrix" values="0 0 0 0 0 0 0 0 0 0 0 0 0 0 0 0 0 0 127 0" result="hardAlpha"/>
<feOffset dy="0.326876"/>
<feGaussianBlur stdDeviation="1.62621"/>
<feComposite in2="hardAlpha" operator="out"/>
<feColorMatrix type="matrix" values="0 0 0 0 0 0 0 0 0 0 0 0 0 0 0 0 0 0 0.15 0"/>
<feBlend mode="normal" in2="BackgroundImageFix" result="effect1_dropShadow_152_162"/>
<feBlend mode="normal" in="SourceGraphic" in2="effect1_dropShadow_152_162" result="shape"/>
</filter>
<filter id="filter5_d_152_162" x="83.8413" y="95.0416" width="12.6709" height="14.6845" filterUnits="userSpaceOnUse" color-interpolation-filters="sRGB">
<feFlood flood-opacity="0" result="BackgroundImageFix"/>
<feColorMatrix in="SourceAlpha" type="matrix" values="0 0 0 0 0 0 0 0 0 0 0 0 0 0 0 0 0 0 127 0" result="hardAlpha"/>
<feOffset dy="0.326876"/>
<feGaussianBlur stdDeviation="1.62621"/>
<feComposite in2="hardAlpha" operator="out"/>
<feColorMatrix type="matrix" values="0 0 0 0 0 0 0 0 0 0 0 0 0 0 0 0 0 0 0.15 0"/>
<feBlend mode="normal" in2="BackgroundImageFix" result="effect1_dropShadow_152_162"/>
<feBlend mode="normal" in="SourceGraphic" in2="effect1_dropShadow_152_162" result="shape"/>
</filter>
<filter id="filter6_d_152_162" x="75.7583" y="95.0416" width="14.0293" height="14.6845" filterUnits="userSpaceOnUse" color-interpolation-filters="sRGB">
<feFlood flood-opacity="0" result="BackgroundImageFix"/>
<feColorMatrix in="SourceAlpha" type="matrix" values="0 0 0 0 0 0 0 0 0 0 0 0 0 0 0 0 0 0 127 0" result="hardAlpha"/>
<feOffset dy="0.326876"/>
<feGaussianBlur stdDeviation="1.62621"/>
<feComposite in2="hardAlpha" operator="out"/>
<feColorMatrix type="matrix" values="0 0 0 0 0 0 0 0 0 0 0 0 0 0 0 0 0 0 0.15 0"/>
<feBlend mode="normal" in2="BackgroundImageFix" result="effect1_dropShadow_152_162"/>
<feBlend mode="normal" in="SourceGraphic" in2="effect1_dropShadow_152_162" result="shape"/>
</filter>
<filter id="filter7_d_152_162" x="68.8364" y="92.107" width="13.1084" height="17.4319" filterUnits="userSpaceOnUse" color-interpolation-filters="sRGB">
<feFlood flood-opacity="0" result="BackgroundImageFix"/>
<feColorMatrix in="SourceAlpha" type="matrix" values="0 0 0 0 0 0 0 0 0 0 0 0 0 0 0 0 0 0 127 0" result="hardAlpha"/>
<feOffset dy="0.326876"/>
<feGaussianBlur stdDeviation="1.62621"/>
<feComposite in2="hardAlpha" operator="out"/>
<feColorMatrix type="matrix" values="0 0 0 0 0 0 0 0 0 0 0 0 0 0 0 0 0 0 0.15 0"/>
<feBlend mode="normal" in2="BackgroundImageFix" result="effect1_dropShadow_152_162"/>
<feBlend mode="normal" in="SourceGraphic" in2="effect1_dropShadow_152_162" result="shape"/>
</filter>
</defs>
</svg>
