<svg width="134" height="76" viewBox="0 0 134 76" fill="none" xmlns="http://www.w3.org/2000/svg">
<path d="M1.38091 26.7791C-0.381896 19.4365 4.14144 12.0551 11.4841 10.2923L48.6025 1.38091C55.9451 -0.381896 63.3265 4.14144 65.0893 11.4841L74.0007 48.6025C75.7635 55.9451 71.2402 63.3265 63.8975 65.0893L26.7791 74.0007C19.4365 75.7635 12.0551 71.2402 10.2923 63.8975L1.38091 26.7791Z" fill="#153F93"/>
<path d="M48.4858 0.894531C56.0969 -0.932724 63.7483 3.75618 65.5757 11.3672L74.4878 48.4854C76.315 56.0963 71.626 63.7477 64.0151 65.5752L26.896 74.4873C19.2851 76.3143 11.6335 71.6255 9.80615 64.0146L0.89502 26.8955C-0.932022 19.2845 3.75669 11.6329 11.3677 9.80566L48.4858 0.894531Z" fill="#153F93" stroke="white"/>
<path d="M15.5407 32.0462L11.3122 32.1469C10.6745 32.1469 10.742 31.7781 10.6745 31.0062C10.3412 27.1916 10.4195 27.4086 10.339 21.2067C10.2584 15.0049 14.7577 13.3873 17.0174 13.3537C20.5412 13.3537 21.5144 14.5619 22.1185 14.5619C22.6219 14.5619 23.7965 13.3537 27.0182 13.3537C33.4886 13.3806 33.7302 18.6558 33.7302 21.2067C33.775 31.0622 33.8712 51.1287 33.898 52.5517C33.9316 54.3303 35.0726 55.2029 36.6499 55.3036C37.9118 55.3841 38.1825 54.5317 38.1601 54.0954L38.093 42.7186C38.1198 42.3159 38.3615 42.3159 38.5293 42.3159L42.4558 42.2823C43.5029 42.2823 43.3593 42.6179 43.3619 43.0207C43.3955 48.133 43.476 58.8207 43.5297 60.6732C43.5968 62.9888 42.0195 66.5126 37.6567 66.7139C33.2939 66.9153 31.1125 66.1099 30.4413 65.8414C29.9044 65.6266 29.8373 65.2373 29.8708 65.0695C29.8261 64.3759 29.7366 62.8948 29.7366 62.519C29.7366 62.0491 29.7701 61.68 30.4413 61.8142C34.0927 62.378 36.4821 62.1386 37.2204 61.9484C38.2944 61.7337 38.1266 60.8745 38.0259 59.7335C30.5085 60.8074 28.3606 56.7467 28.3606 50.4374L28.2264 21.2067C28.1995 18.0924 27.2531 18.249 26.6155 18.2195C24.8704 18.139 24.9711 20.4013 24.9711 20.9714V31.0058C24.9711 32.214 24.4341 32.1133 23.83 32.1133L20.1049 32.0798C19.4874 32.0529 19.4027 31.7442 19.4001 31.375C19.3778 28.0973 19.3701 21.313 19.333 20.4009C19.2662 18.7568 19.132 18.3202 17.7557 18.3202C16.3794 18.3202 16.2579 18.9246 16.2455 20.8372C16.2231 24.2827 16.1784 31.2542 16.1784 31.5764C16.1784 31.8985 15.7533 32.0238 15.5407 32.0462Z" fill="#00963F"/>
<path d="M51.1819 60.4386L46.9533 60.5393C46.3157 60.5393 46.3831 60.1705 46.3157 59.3986C45.9823 55.584 46.0606 55.801 45.9801 49.5992C45.8995 43.3973 50.3988 41.7797 52.6585 41.7461C56.1823 41.7461 57.1555 42.9543 57.7596 42.9543C58.263 42.9543 59.4376 41.7461 62.6593 41.7461C69.1297 41.773 69.3713 47.0482 69.3713 49.5992C69.3836 52.2975 69.3997 55.7613 69.4172 59.3983C69.4217 60.3383 69.4172 60.6404 68.5313 60.6404H64.8397C63.7993 60.6404 63.9125 60.2376 63.9125 59.3983C63.9125 55.5714 63.8675 49.5992 63.8675 49.5992C63.8407 46.4848 62.8943 46.6414 62.2566 46.6119C60.5115 46.5314 60.6122 48.7937 60.6122 49.3639V59.3983C60.6122 60.6064 60.0752 60.5057 59.4712 60.5057L55.746 60.4722C55.1285 60.4453 55.0438 60.1366 55.0412 59.7674C55.0189 56.4897 55.0112 49.7054 54.9741 48.7933C54.9073 47.1493 54.7731 46.7126 53.3968 46.7126C52.0206 46.7126 51.899 47.3171 51.8866 49.2296C51.8642 52.6751 51.8195 59.6466 51.8195 59.9688C51.8195 60.291 51.3944 60.4163 51.1819 60.4386Z" fill="#E30713"/>
<path d="M45.6789 30.8049C38.1615 31.8788 36.0137 27.818 36.0137 21.5088C36.0137 21.5088 35.9751 16.8044 35.9782 13.79C35.9786 13.4544 36.2069 13.3873 36.4488 13.3873C37.9926 13.3873 39.251 13.3873 41.0465 13.3873C41.315 13.3873 41.4878 13.5886 41.4878 13.79C41.4878 13.9913 41.5395 23.0131 41.551 23.623C41.5846 25.4017 42.7256 26.2743 44.303 26.375C45.5648 26.4555 45.8355 25.6031 45.8131 25.1668L45.746 13.79C45.7729 13.3873 46.0145 13.3873 46.1823 13.3873L50.1088 13.3537C51.1559 13.3537 51.0123 13.6893 51.0149 14.092C51.0485 19.2043 51.129 29.892 51.1827 31.7445C51.2499 34.0602 49.6725 37.584 45.3097 37.7853C40.947 37.9867 38.7656 37.1812 38.0944 36.9128C37.5574 36.698 37.4903 36.3087 37.5239 36.1409C37.4791 35.4473 37.3896 33.9662 37.3896 33.5903C37.3896 33.1205 37.4232 32.7513 38.0944 32.8856C41.7457 33.4494 44.1352 33.21 44.8735 33.0198C45.9474 32.805 45.7796 31.9459 45.6789 30.8049Z" fill="#FEED00"/>
<path d="M25.3772 58.717L25.2765 48.8504C25.2639 47.6154 24.7396 47.8436 24.3704 47.8436L20.209 48.0114C19.4036 48.0651 19.5714 48.5483 19.5714 48.9175L19.6385 54.4884C19.6385 55.4952 17.8934 55.3547 16.9201 54.9247C15.4771 54.2871 15.2421 52.9223 15.2086 52.1057C15.1638 50.629 15.0878 47.1858 15.1415 45.2259C15.1952 43.266 16.7971 42.3733 17.5913 42.1719C19.37 41.7692 24.102 42.2726 24.6053 42.3062C25.1087 42.3397 25.2765 42.3062 25.2765 41.6014V38.0441C25.2765 37.5071 25.2765 37.5071 24.6053 37.3393C17.0879 35.4935 14.5374 36.4668 11.7519 38.8495C8.96643 41.2323 8.73151 44.6554 9.16779 51.9043C9.60406 59.1533 14.5709 60.5292 17.8934 60.6635C20.5513 60.7708 23.565 60.1265 24.7396 59.7909C25.4376 59.5761 25.3772 59.1533 25.3772 58.717Z" fill="#E30713"/>
<path d="M62.3066 18.9604C62.3066 15.7103 64.6405 13.0755 67.5195 13.0755H128.787C131.666 13.0755 134 15.7103 134 18.9604V26.758C134 30.0081 131.666 32.6429 128.787 32.6429H67.5195C64.6405 32.6429 62.3066 30.0081 62.3066 26.758V18.9604Z" fill="#FEED00"/>
<g filter="url(#filter0_d_41_636)">
<path d="M125.781 28.0165C125.237 28.0165 124.749 27.9344 124.318 27.7701C123.897 27.6059 123.538 27.3852 123.24 27.1081C122.953 26.8309 122.737 26.5178 122.594 26.1688L123.856 25.6145C124.021 25.9327 124.267 26.1945 124.595 26.3998C124.924 26.6051 125.288 26.7077 125.689 26.7077C126.13 26.7077 126.494 26.6256 126.782 26.4614C127.069 26.2971 127.213 26.0662 127.213 25.7685C127.213 25.4811 127.105 25.2553 126.89 25.091C126.674 24.9268 126.361 24.7933 125.95 24.6907L125.227 24.5059C124.508 24.3109 123.949 24.0183 123.548 23.6283C123.158 23.2382 122.963 22.7968 122.963 22.3041C122.963 21.5548 123.205 20.9748 123.687 20.5642C124.169 20.1536 124.883 19.9483 125.827 19.9483C126.289 19.9483 126.71 20.015 127.09 20.1485C127.48 20.2819 127.808 20.4718 128.075 20.7182C128.352 20.9645 128.547 21.2571 128.66 21.5958L127.428 22.1501C127.305 21.8422 127.095 21.6164 126.797 21.4727C126.5 21.3187 126.151 21.2417 125.75 21.2417C125.34 21.2417 125.016 21.3341 124.78 21.5188C124.544 21.6933 124.426 21.9397 124.426 22.2579C124.426 22.4324 124.524 22.6018 124.719 22.766C124.924 22.92 125.222 23.0483 125.612 23.151L126.443 23.3511C126.946 23.4743 127.362 23.6642 127.69 23.9208C128.019 24.1672 128.265 24.4495 128.429 24.7677C128.594 25.0756 128.676 25.399 128.676 25.7377C128.676 26.1996 128.547 26.6051 128.291 26.9541C128.044 27.2928 127.701 27.5546 127.259 27.7393C126.828 27.9241 126.335 28.0165 125.781 28.0165Z" fill="#153F93"/>
</g>
<g filter="url(#filter1_d_41_636)">
<path d="M120.549 28.0156C119.78 28.0156 119.184 27.8205 118.763 27.4305C118.342 27.0301 118.132 26.4604 118.132 25.7214V17.7302H119.595V25.5058C119.595 25.8856 119.687 26.1782 119.872 26.3834C120.067 26.5785 120.344 26.676 120.703 26.676C120.806 26.676 120.919 26.6555 121.042 26.6144C121.165 26.5733 121.314 26.4912 121.489 26.3681L122.043 27.5074C121.776 27.682 121.519 27.8103 121.273 27.8924C121.037 27.9745 120.796 28.0156 120.549 28.0156ZM116.823 21.3947V20.1322H121.781V21.3947H116.823Z" fill="#153F93"/>
</g>
<g filter="url(#filter2_d_41_636)">
<path d="M113.564 23.6911C113.564 22.8596 113.724 22.1821 114.042 21.6586C114.36 21.1351 114.771 20.745 115.274 20.4884C115.777 20.2318 116.305 20.1035 116.859 20.1035V21.4892C116.398 21.4892 115.956 21.5611 115.535 21.7048C115.125 21.8382 114.786 22.0641 114.519 22.3823C114.262 22.6902 114.134 23.1111 114.134 23.6449L113.564 23.6911ZM112.671 27.8329V20.1343H114.134V27.8329H112.671Z" fill="#153F93"/>
</g>
<g filter="url(#filter3_d_41_636)">
<path d="M107.681 28.0165C106.911 28.0165 106.234 27.8471 105.648 27.5084C105.063 27.1594 104.601 26.6821 104.263 26.0764C103.934 25.4708 103.77 24.7728 103.77 23.9824C103.77 23.192 103.934 22.494 104.263 21.8884C104.591 21.2828 105.048 20.8106 105.633 20.4718C106.218 20.1228 106.891 19.9483 107.65 19.9483C108.41 19.9483 109.082 20.1228 109.667 20.4718C110.252 20.8106 110.709 21.2828 111.038 21.8884C111.366 22.494 111.53 23.192 111.53 23.9824C111.53 24.7728 111.366 25.4708 111.038 26.0764C110.709 26.6821 110.252 27.1594 109.667 27.5084C109.092 27.8471 108.43 28.0165 107.681 28.0165ZM107.681 26.6769C108.143 26.6769 108.553 26.564 108.913 26.3382C109.272 26.1021 109.549 25.7839 109.744 25.3836C109.949 24.9832 110.052 24.5162 110.052 23.9824C110.052 23.4486 109.949 22.9816 109.744 22.5813C109.549 22.1809 109.267 21.8679 108.897 21.642C108.528 21.4059 108.112 21.2879 107.65 21.2879C107.178 21.2879 106.762 21.4059 106.403 21.642C106.044 21.8679 105.761 22.1809 105.556 22.5813C105.351 22.9816 105.248 23.4486 105.248 23.9824C105.248 24.5162 105.351 24.9832 105.556 25.3836C105.761 25.7839 106.049 26.1021 106.418 26.3382C106.788 26.564 107.209 26.6769 107.681 26.6769Z" fill="#153F93"/>
</g>
<g filter="url(#filter4_d_41_636)">
<path d="M98.4939 28.0171C97.4674 28.0171 96.5539 27.7811 95.7532 27.3089C94.9526 26.8264 94.3264 26.1695 93.8747 25.338C93.4231 24.4963 93.1973 23.5314 93.1973 22.4433C93.1973 21.3553 93.4231 20.3955 93.8747 19.564C94.3264 18.7223 94.9474 18.0654 95.7378 17.5932C96.5282 17.1107 97.4366 16.8695 98.4631 16.8695C99.1303 16.8695 99.7668 16.9927 100.372 17.2391C100.978 17.4751 101.517 17.8088 101.989 18.2399C102.472 18.6607 102.841 19.1534 103.098 19.718L101.743 20.3339C101.548 19.913 101.281 19.5486 100.942 19.2407C100.603 18.9328 100.218 18.6915 99.7873 18.517C99.3664 18.3425 98.9251 18.2553 98.4631 18.2553C97.7446 18.2553 97.103 18.4349 96.5385 18.7942C95.9739 19.1534 95.5325 19.6462 95.2143 20.2723C94.8961 20.8985 94.737 21.6221 94.737 22.4433C94.737 23.2645 94.8961 23.9933 95.2143 24.6297C95.5428 25.2662 95.9893 25.764 96.5539 26.1233C97.1287 26.4723 97.7805 26.6468 98.5093 26.6468C98.9815 26.6468 99.428 26.5544 99.8489 26.3696C100.27 26.1746 100.644 25.9129 100.973 25.5844C101.312 25.2456 101.584 24.8607 101.789 24.4296L103.144 25.0301C102.887 25.6152 102.523 26.1335 102.051 26.5852C101.579 27.0369 101.034 27.391 100.419 27.6476C99.813 27.894 99.1714 28.0171 98.4939 28.0171Z" fill="#153F93"/>
</g>
<g filter="url(#filter5_d_41_636)">
<path d="M86.3 28.0165C85.756 28.0165 85.2684 27.9344 84.8373 27.7701C84.4164 27.6059 84.0572 27.3852 83.7595 27.1081C83.4721 26.8309 83.2565 26.5178 83.1128 26.1688L84.3754 25.6145C84.5396 25.9327 84.786 26.1945 85.1144 26.3998C85.4429 26.6051 85.8073 26.7077 86.2076 26.7077C86.649 26.7077 87.0134 26.6256 87.3009 26.4614C87.5883 26.2971 87.732 26.0662 87.732 25.7685C87.732 25.4811 87.6242 25.2553 87.4086 25.091C87.1931 24.9268 86.88 24.7933 86.4694 24.6907L85.7457 24.5059C85.0272 24.3109 84.4678 24.0183 84.0674 23.6283C83.6774 23.2382 83.4823 22.7968 83.4823 22.3041C83.4823 21.5548 83.7236 20.9748 84.206 20.5642C84.6884 20.1536 85.4019 19.9483 86.3462 19.9483C86.8081 19.9483 87.229 20.015 87.6088 20.1485C87.9989 20.2819 88.3273 20.4718 88.5942 20.7182C88.8714 20.9645 89.0664 21.2571 89.1793 21.5958L87.9475 22.1501C87.8244 21.8422 87.6139 21.6164 87.3162 21.4727C87.0186 21.3187 86.6696 21.2417 86.2692 21.2417C85.8586 21.2417 85.5353 21.3341 85.2992 21.5188C85.0631 21.6933 84.9451 21.9397 84.9451 22.2579C84.9451 22.4324 85.0426 22.6018 85.2376 22.766C85.4429 22.92 85.7406 23.0483 86.1307 23.151L86.9621 23.3511C87.4651 23.4743 87.8808 23.6642 88.2093 23.9208C88.5378 24.1672 88.7841 24.4495 88.9484 24.7677C89.1126 25.0756 89.1947 25.399 89.1947 25.7377C89.1947 26.1996 89.0664 26.6051 88.8098 26.9541C88.5634 27.2928 88.2196 27.5546 87.7782 27.7393C87.347 27.9241 86.8543 28.0165 86.3 28.0165Z" fill="#153F93"/>
</g>
<g filter="url(#filter6_d_41_636)">
<path d="M78.9736 28.0165C78.2242 28.0165 77.5622 27.8471 76.9873 27.5084C76.4125 27.1594 75.9608 26.6821 75.6324 26.0764C75.3039 25.4708 75.1396 24.7728 75.1396 23.9824C75.1396 23.192 75.3039 22.494 75.6324 21.8884C75.9608 21.2828 76.4125 20.8106 76.9873 20.4718C77.5724 20.1228 78.2396 19.9483 78.989 19.9483C79.6972 19.9483 80.3183 20.128 80.852 20.4872C81.3858 20.8362 81.8015 21.3392 82.0992 21.9962C82.4072 22.6428 82.5611 23.4076 82.5611 24.2904H76.3406L76.6178 24.0594C76.6178 24.6034 76.7256 25.0756 76.9411 25.4759C77.1567 25.8763 77.4492 26.1842 77.8188 26.3998C78.1883 26.6051 78.6092 26.7077 79.0814 26.7077C79.5946 26.7077 80.0206 26.5897 80.3593 26.3536C80.7083 26.1072 80.9803 25.7993 81.1754 25.4298L82.438 26.0149C82.2327 26.4152 81.9658 26.7693 81.6373 27.0773C81.3088 27.3749 80.9188 27.6059 80.4671 27.7701C80.0257 27.9344 79.5279 28.0165 78.9736 28.0165ZM76.7102 23.3665L76.4176 23.1356H81.2832L81.006 23.3665C81.006 22.9149 80.9136 22.5299 80.7289 22.2117C80.5441 21.8832 80.2977 21.6369 79.9898 21.4727C79.6818 21.2982 79.338 21.2109 78.9582 21.2109C78.5886 21.2109 78.2294 21.2982 77.8804 21.4727C77.5416 21.6369 77.2593 21.8781 77.0335 22.1963C76.818 22.5145 76.7102 22.9046 76.7102 23.3665Z" fill="#153F93"/>
</g>
<g filter="url(#filter7_d_41_636)">
<path d="M68.312 27.8318V17.0537H69.8209V26.4461H74.8251V27.8318H68.312Z" fill="#153F93"/>
</g>
<defs>
<filter id="filter0_d_41_636" x="119.341" y="17.0228" width="12.5869" height="14.573" filterUnits="userSpaceOnUse" color-interpolation-filters="sRGB">
<feFlood flood-opacity="0" result="BackgroundImageFix"/>
<feColorMatrix in="SourceAlpha" type="matrix" values="0 0 0 0 0 0 0 0 0 0 0 0 0 0 0 0 0 0 127 0" result="hardAlpha"/>
<feOffset dy="0.326876"/>
<feGaussianBlur stdDeviation="1.62621"/>
<feComposite in2="hardAlpha" operator="out"/>
<feColorMatrix type="matrix" values="0 0 0 0 0 0 0 0 0 0 0 0 0 0 0 0 0 0 0.15 0"/>
<feBlend mode="normal" in2="BackgroundImageFix" result="effect1_dropShadow_41_636"/>
<feBlend mode="normal" in="SourceGraphic" in2="effect1_dropShadow_41_636" result="shape"/>
</filter>
<filter id="filter1_d_41_636" x="113.571" y="14.8046" width="11.7246" height="16.7902" filterUnits="userSpaceOnUse" color-interpolation-filters="sRGB">
<feFlood flood-opacity="0" result="BackgroundImageFix"/>
<feColorMatrix in="SourceAlpha" type="matrix" values="0 0 0 0 0 0 0 0 0 0 0 0 0 0 0 0 0 0 127 0" result="hardAlpha"/>
<feOffset dy="0.326876"/>
<feGaussianBlur stdDeviation="1.62621"/>
<feComposite in2="hardAlpha" operator="out"/>
<feColorMatrix type="matrix" values="0 0 0 0 0 0 0 0 0 0 0 0 0 0 0 0 0 0 0.15 0"/>
<feBlend mode="normal" in2="BackgroundImageFix" result="effect1_dropShadow_41_636"/>
<feBlend mode="normal" in="SourceGraphic" in2="effect1_dropShadow_41_636" result="shape"/>
</filter>
<filter id="filter2_d_41_636" x="109.419" y="17.1779" width="10.6928" height="14.2343" filterUnits="userSpaceOnUse" color-interpolation-filters="sRGB">
<feFlood flood-opacity="0" result="BackgroundImageFix"/>
<feColorMatrix in="SourceAlpha" type="matrix" values="0 0 0 0 0 0 0 0 0 0 0 0 0 0 0 0 0 0 127 0" result="hardAlpha"/>
<feOffset dy="0.326876"/>
<feGaussianBlur stdDeviation="1.62621"/>
<feComposite in2="hardAlpha" operator="out"/>
<feColorMatrix type="matrix" values="0 0 0 0 0 0 0 0 0 0 0 0 0 0 0 0 0 0 0.15 0"/>
<feBlend mode="normal" in2="BackgroundImageFix" result="effect1_dropShadow_41_636"/>
<feBlend mode="normal" in="SourceGraphic" in2="effect1_dropShadow_41_636" result="shape"/>
</filter>
<filter id="filter3_d_41_636" x="100.518" y="17.0228" width="14.2651" height="14.573" filterUnits="userSpaceOnUse" color-interpolation-filters="sRGB">
<feFlood flood-opacity="0" result="BackgroundImageFix"/>
<feColorMatrix in="SourceAlpha" type="matrix" values="0 0 0 0 0 0 0 0 0 0 0 0 0 0 0 0 0 0 127 0" result="hardAlpha"/>
<feOffset dy="0.326876"/>
<feGaussianBlur stdDeviation="1.62621"/>
<feComposite in2="hardAlpha" operator="out"/>
<feColorMatrix type="matrix" values="0 0 0 0 0 0 0 0 0 0 0 0 0 0 0 0 0 0 0.15 0"/>
<feBlend mode="normal" in2="BackgroundImageFix" result="effect1_dropShadow_41_636"/>
<feBlend mode="normal" in="SourceGraphic" in2="effect1_dropShadow_41_636" result="shape"/>
</filter>
<filter id="filter4_d_41_636" x="89.9448" y="13.944" width="16.4516" height="17.6525" filterUnits="userSpaceOnUse" color-interpolation-filters="sRGB">
<feFlood flood-opacity="0" result="BackgroundImageFix"/>
<feColorMatrix in="SourceAlpha" type="matrix" values="0 0 0 0 0 0 0 0 0 0 0 0 0 0 0 0 0 0 127 0" result="hardAlpha"/>
<feOffset dy="0.326876"/>
<feGaussianBlur stdDeviation="1.62621"/>
<feComposite in2="hardAlpha" operator="out"/>
<feColorMatrix type="matrix" values="0 0 0 0 0 0 0 0 0 0 0 0 0 0 0 0 0 0 0.15 0"/>
<feBlend mode="normal" in2="BackgroundImageFix" result="effect1_dropShadow_41_636"/>
<feBlend mode="normal" in="SourceGraphic" in2="effect1_dropShadow_41_636" result="shape"/>
</filter>
<filter id="filter5_d_41_636" x="79.8604" y="17.0228" width="12.5869" height="14.573" filterUnits="userSpaceOnUse" color-interpolation-filters="sRGB">
<feFlood flood-opacity="0" result="BackgroundImageFix"/>
<feColorMatrix in="SourceAlpha" type="matrix" values="0 0 0 0 0 0 0 0 0 0 0 0 0 0 0 0 0 0 127 0" result="hardAlpha"/>
<feOffset dy="0.326876"/>
<feGaussianBlur stdDeviation="1.62621"/>
<feComposite in2="hardAlpha" operator="out"/>
<feColorMatrix type="matrix" values="0 0 0 0 0 0 0 0 0 0 0 0 0 0 0 0 0 0 0.15 0"/>
<feBlend mode="normal" in2="BackgroundImageFix" result="effect1_dropShadow_41_636"/>
<feBlend mode="normal" in="SourceGraphic" in2="effect1_dropShadow_41_636" result="shape"/>
</filter>
<filter id="filter6_d_41_636" x="71.8872" y="17.0228" width="13.9262" height="14.573" filterUnits="userSpaceOnUse" color-interpolation-filters="sRGB">
<feFlood flood-opacity="0" result="BackgroundImageFix"/>
<feColorMatrix in="SourceAlpha" type="matrix" values="0 0 0 0 0 0 0 0 0 0 0 0 0 0 0 0 0 0 127 0" result="hardAlpha"/>
<feOffset dy="0.326876"/>
<feGaussianBlur stdDeviation="1.62621"/>
<feComposite in2="hardAlpha" operator="out"/>
<feColorMatrix type="matrix" values="0 0 0 0 0 0 0 0 0 0 0 0 0 0 0 0 0 0 0.15 0"/>
<feBlend mode="normal" in2="BackgroundImageFix" result="effect1_dropShadow_41_636"/>
<feBlend mode="normal" in="SourceGraphic" in2="effect1_dropShadow_41_636" result="shape"/>
</filter>
<filter id="filter7_d_41_636" x="65.0596" y="14.1282" width="13.018" height="17.2829" filterUnits="userSpaceOnUse" color-interpolation-filters="sRGB">
<feFlood flood-opacity="0" result="BackgroundImageFix"/>
<feColorMatrix in="SourceAlpha" type="matrix" values="0 0 0 0 0 0 0 0 0 0 0 0 0 0 0 0 0 0 127 0" result="hardAlpha"/>
<feOffset dy="0.326876"/>
<feGaussianBlur stdDeviation="1.62621"/>
<feComposite in2="hardAlpha" operator="out"/>
<feColorMatrix type="matrix" values="0 0 0 0 0 0 0 0 0 0 0 0 0 0 0 0 0 0 0.15 0"/>
<feBlend mode="normal" in2="BackgroundImageFix" result="effect1_dropShadow_41_636"/>
<feBlend mode="normal" in="SourceGraphic" in2="effect1_dropShadow_41_636" result="shape"/>
</filter>
</defs>
</svg>
